<?xml version="1.0" encoding="utf-8"?>
<!-- Generator: Adobe Illustrator 16.0.0, SVG Export Plug-In . SVG Version: 6.00 Build 0)  -->
<!DOCTYPE svg PUBLIC "-//W3C//DTD SVG 1.1//EN" "http://www.w3.org/Graphics/SVG/1.1/DTD/svg11.dtd">
<svg version="1.1" id="Layer_1" xmlns="http://www.w3.org/2000/svg" xmlns:xlink="http://www.w3.org/1999/xlink" x="0px" y="0px"
	 width="246.378px" height="252.62px" viewBox="0 0 246.378 252.62" enable-background="new 0 0 246.378 252.62"
	 xml:space="preserve">
<g>
	<path fill="#46DA53" d="M73.276,15.336l-9.63,0.857c-1.211,0.108-2.292,1.036-2.636,2.177c-0.071,0.082-0.09,0.163-0.051,0.241
		c-0.021,0.099-0.047,0.196-0.056,0.298l-7.643,89.012c-0.118,1.376,0.918,2.39,2.316,2.265l46.53-4.143
		c0.18,1.355,1.345,1.843,1.345,1.843s0.798-0.835,2.079-2.204c0.484-0.143,0.944-0.412,1.322-0.785l15.851-17.51
		c0.514-0.51,0.835-1.166,0.892-1.826l0.125-1.452c0.827-1.272,1.421-2.363,1.67-3.17c0.588-1.913-0.173-1.771-1.32-0.903
		l4.382-51.044c0.058-0.66-0.155-1.27-0.589-1.694l-13.064-14.935c-0.435-0.425-1.055-0.629-1.726-0.57l-3.594,0.32
		c-0.688-0.269-1.558-0.471-2.685-0.553c-6.499-0.477-41.024,1.145-42.299,1.258s-7.18,2.542,4.247,2.131
		C74.113,14.754,74.729,14.941,73.276,15.336z M80.13,32.853l22.376-1.992l4.944,4.834l-4.011,46.714l-5.982,5.92l-22.26,1.982
		L80.13,32.853z"/>
	<g>
		<path fill="#46DA53" d="M205.137,125.711l-13.062-14.935c-0.436-0.425-1.056-0.63-1.727-0.57l-49.426,4.401
			c-1.396,0.125-2.625,1.34-2.742,2.715l-7.503,87.374c-0.267,0.114-0.523,0.229-0.76,0.346c-1.185,0.583-0.704,0.943,0.63,1.174
			l-0.01,0.119c-0.119,1.375,0.918,2.389,2.314,2.265l7.067-0.63c-0.593,0.091-1.245,0.187-1.981,0.291
			c-13.722,1.942-7.088,3.616-5.57,3.48c1.221-0.108,25-3.983,38.402-6.518l11.508-1.025c0.671-0.06,1.336-0.379,1.852-0.889
			l15.849-17.509c0.515-0.51,0.837-1.166,0.893-1.826l4.857-56.569C205.785,126.744,205.572,126.135,205.137,125.711z
			 M157.321,132.263l22.714-2.022l4.636,4.533l-3.667,42.709l-9.204,9.521l-19.325,1.721L157.321,132.263z"/>
		<path fill="#46DA53" d="M89.911,125.08l-12.584,1.12c-6.732-0.249-15.633,0.075-3.08-1.702c13.723-1.943,7.088-3.617,5.57-3.481
			c-1.517,0.136-42.898,5.55-50.85,7.513c-3.312,0.819-5.041,2.131-5.943,3.382c-0.318,0.359-0.556,0.782-0.672,1.24
			c-0.439,1.212-0.227,2.145-0.227,2.145l-3.082,35.89l-12.727,1.004c-3.188,0.284-4.227,1.314-4.697,3.5
			c-0.067,0.312-0.123,0.648-0.173,1.01c0.013,0.307,0.075,0.568,0.161,0.809c0.891,1.593,2.822,1.861,4.029,2.397
			c0.232,0.079,0.451,0.164,0.654,0.258c-2.072,0.62-5.074,2.005-3.92,5.755c-0.796,1.145-0.814,2.344-0.6,3.539
			c-0.293,0.384-0.332,0.809,0.256,1.142c0.157,0.606,0.322,1.205,0.434,1.788c-2.113,0.648-3.555,1.645-1.381,3.184
			c2.031,1.439,6.836,1.088,12.122,0.064l3.767-0.291l-1.826,21.267c-0.118,1.375,0.919,2.389,2.315,2.265l15.523-1.382
			c1.396-0.125,2.625-1.34,2.743-2.716l1.038-12.097l0.767-8.925l30.781-2.378l-1.774,20.656c-0.117,1.375,0.919,2.389,2.316,2.264
			l13.5-1.201c1.396-0.125,4.648-1.521,4.768-2.896l7.129-83.037C94.368,125.789,91.309,124.955,89.911,125.08z M70.393,167.135
			l-30.785,2.429c0.189-2.205,0.315-3.669,0.315-3.669l0.626-7.284l1.037-12.089l30.812-2.743L70.393,167.135z"/>
		<path fill="#46DA53" d="M97.823,205.251l-0.365,4.256c-0.084,0.974,0.416,1.756,1.209,2.092c0.274,0.725,0.622,1.312,1.067,1.701
			c4.204,3.668,3.946-1.998,3.978-1.461c0.312,5.164,2.613-0.262,3.205-0.338c0.68-0.088,1.244-0.271,1.729-0.52l8.675-0.771
			c1.397-0.125,2.626-1.34,2.743-2.716l3.297-38.388c0.727,2.218,2.127-1.385,2.215-2.413c0.096-1.117,0.741-20.061,0.804-32.748
			l1.435-16.709c0.117-1.375-0.919-2.389-2.316-2.264l-17.547,1.562c-1.397,0.124-2.625,1.34-2.742,2.715l-6.35,73.938
			C98.367,196.479,97.805,201.167,97.823,205.251z"/>
	</g>
	<g>
		<path fill="#46DA53" d="M49.262,15.609c-0.79-4.757-5.444-2.686-6.993-1.85c-1.646-0.104-3.266-0.091-4.167,0.229
			c-1.011,0.361-1.895,1.537-2.566,2.73l-4.523,0.402c-1.397,0.125-2.625,1.34-2.744,2.716l-2.355,27.433
			c-0.728-2.218-2.127,1.385-2.215,2.414c-0.096,1.115-1.267,26.173-1.594,41.954l-1.585,18.457
			c-0.118,1.375,0.918,2.389,2.316,2.264l17.546-1.562c1.397-0.124,2.625-1.34,2.744-2.715l7.749-90.257
			C50.973,16.694,50.285,15.819,49.262,15.609z"/>
		<path fill="#46DA53" d="M48.229,7.679c4.183-3.801-3.641-4.367-0.287-4.332c3.355,0.037,2.738-2.567,2.397-2.65
			C50,0.613,43.193-0.519,40.927,0.29c-2.266,0.809-3.902,5.721-3.902,5.721S44.046,11.479,48.229,7.679z"/>
	</g>
	<path fill="#46DA53" d="M136.84,56.051l-0.091,1.062c-2.709,1.336-6.463,3.77-3.956,7.324c-0.182,0.689-0.244,1.439-0.795,1.984
		c-0.121,0.213-0.207,0.414-0.286,0.613c-1.047,1.19-0.859,1.807-0.062,2.086c0.334,0.76,1.083,1.313,2.023,1.671
		c-2.684,1.568,0.001,2.336,0.694,2.175c0.09-0.021,0.459-0.071,1.032-0.146l-1.615,18.808c-0.953,1.438-0.879,2.487-0.279,3.259
		l-0.394,4.582c-1.309,1.553,0.052,3.439,0.589,3.466c0.803,0.044,21.263-1.987,26.383-4.032l34.223-3.047
		c1.396-0.125,2.625-1.34,2.743-2.715l1.397-16.275c0.117-1.375-0.918-2.389-2.316-2.265l-39.858,3.55l0.721-7.192l22.311-1.986
		c0.944-0.084,1.806-0.672,2.306-1.464c0.95-0.165,1.559-0.279,1.676-0.315c0.844-0.261,3.955-6.059-3.873-5.185
		c-0.303,0.034-0.553,0.06-0.779,0.081c-0.117-0.164-0.219-0.326-0.29-0.488c2.37-1.072,8.433-3.725,5.413-8.006
		c0.182-0.689,0.244-1.439,0.795-1.984c0.121-0.213,0.207-0.414,0.287-0.613c1.047-1.189,0.857-1.805,0.061-2.085
		c-0.334-0.761-1.082-1.314-2.022-1.672c2.683-1.568-0.001-2.335-0.694-2.175c-0.508,0.117-9.477,1.139-17.883,2.42
		c-1.012-0.184-2.688-0.193-4.756-0.083l0.014-0.329l-1.533,0.137l1.586-18.469l40.771-3.631c1.396-0.125,2.625-1.34,2.743-2.715
		l1.397-16.275c0.118-1.375-0.919-2.389-2.316-2.265l-58.823,5.237c-1.397,0.125-2.625,1.34-2.999,5.703l-2.94,34.247l-0.196,0.018
		c-0.944,0.084-1.806,0.671-2.304,1.464c-0.952,0.164-1.561,0.279-1.677,0.314C132.431,51.097,129.4,56.741,136.84,56.051z"/>
	<path fill="#46DA53" d="M201.638,216.154L18.188,232.237c-1.705,0.15-3.086,2.927-3.086,6.199c0,0.674,0.061,1.312,0.168,1.906
		c-0.107,0.644-0.168,1.332-0.168,2.048c0,2.052,0.482,3.818,1.213,4.819c-0.718,0.603-1.203,1.635-1.188,2.756
		c0.022,1.634,1.087,2.816,2.376,2.637l88.914-12.289l73.971-6.485c1.19-0.104,2.199-1.845,2.575-4.179l18.677-1.637
		c1.704-0.149,3.087-2.926,3.086-6.2S203.343,216.005,201.638,216.154z"/>
</g>
<path fill="#46DA53" d="M245.867,223.169l-11.076-5.63l-0.648-0.194l0.291-2.406c0.249-0.489-0.188-1.308-1.009-2.019l3.889-7.698
	c0.354-0.701-0.396-1.915-1.676-2.708c-1.281-0.794-2.604-0.869-2.96-0.166l-6.453,12.626l-2.374-0.711
	c-0.491-0.247-1.308,0.188-2.021,1.011l-7.697-3.889c-0.702-0.355-1.916,0.395-2.71,1.674c-0.793,1.28-0.866,2.606-0.164,2.961
	l11.455,5.822l-5.465,10.691c-0.355,0.702,0.395,1.916,1.675,2.709c0.263,0.162,0.526,0.294,0.785,0.396
	c0.226,0.198,0.48,0.39,0.761,0.563c0.801,0.496,1.607,0.736,2.178,0.693c0.062,0.427,0.346,0.868,0.789,1.133
	c0.644,0.388,1.364,0.258,1.606-0.291l6.248-11.535l9.371,4.764c0.702,0.354,1.916-0.396,2.71-1.676
	c0.163-0.263,0.292-0.527,0.395-0.785c0.198-0.226,0.389-0.48,0.564-0.76c0.496-0.802,0.735-1.609,0.693-2.18
	c0.426-0.062,0.866-0.347,1.132-0.789C246.542,224.132,246.413,223.412,245.867,223.169z"/>
</svg>
