<?xml version="1.0" encoding="utf-8"?>
<!-- Generator: Adobe Illustrator 16.0.0, SVG Export Plug-In . SVG Version: 6.00 Build 0)  -->
<!DOCTYPE svg PUBLIC "-//W3C//DTD SVG 1.1//EN" "http://www.w3.org/Graphics/SVG/1.1/DTD/svg11.dtd">
<svg version="1.1" id="Layer_1" xmlns="http://www.w3.org/2000/svg" xmlns:xlink="http://www.w3.org/1999/xlink" x="0px" y="0px"
	 width="382.641px" height="166.639px" viewBox="0 0 382.641 166.639" enable-background="new 0 0 382.641 166.639"
	 xml:space="preserve">
<path fill="#46DA53" d="M382.041,15.515L368.979,0.581c-0.436-0.425-1.056-0.63-1.727-0.57l-49.426,4.401
	c-1.396,0.125-2.625,1.34-2.742,2.715L307.581,94.5c-0.267,0.114-0.523,0.229-0.76,0.346c-1.185,0.583-0.704,0.943,0.63,1.174
	l-0.01,0.119c-0.119,1.375,0.918,2.389,2.314,2.265l7.067-0.63c-0.593,0.091-1.245,0.187-1.981,0.291
	c-13.722,1.942-7.088,3.616-5.57,3.48c1.221-0.108,25-3.983,38.402-6.518l11.508-1.025c0.671-0.06,1.336-0.379,1.852-0.889
	l15.849-17.509c0.515-0.51,0.837-1.166,0.893-1.826l4.857-56.569C382.688,16.548,382.476,15.939,382.041,15.515z M334.225,22.067
	l22.714-2.022l4.636,4.533l-3.667,42.709l-9.204,9.521l-19.325,1.721L334.225,22.067z"/>
<path fill="#46DA53" d="M199.029,25.1l-6.981,81.314c-0.118,1.375,0.919,2.389,2.315,2.265l15.523-1.382
	c1.396-0.125,2.625-1.34,2.743-2.716l1.038-12.097l1.078-12.543c0,0,0.43-5.009,0.898-10.473c0.047-0.547,0.095-1.097,0.143-1.647
	c-0.17-2.195-0.084-3.191,0.42-4.832c0.039-0.513,0.081-1.01,0.121-1.488c0.288-3.348,0.499-5.803,0.499-5.803l0.626-7.284
	l1.037-12.089l30.812-2.743l-2.006,23.356l-23.076,2.055c-3.188,0.284-4.227,1.314-4.697,3.5c-0.067,0.312-0.123,0.648-0.173,1.01
	c0.013,0.307,0.075,0.568,0.161,0.809c0.891,1.593,2.822,1.861,4.029,2.397c0.232,0.079,0.451,0.164,0.654,0.258
	c-2.072,0.62-5.074,2.005-3.92,5.755c-0.796,1.145-0.814,2.344-0.6,3.539c-0.293,0.384-0.332,0.809,0.256,1.142
	c0.157,0.606,0.322,1.205,0.434,1.788c-2.113,0.648-3.555,1.645-1.381,3.184c2.031,1.439,6.836,1.088,12.122,0.064l14.109-1.257
	l-1.774,20.656c-0.117,1.375,0.919,2.389,2.316,2.264l13.5-1.201c1.396-0.125,4.648-1.521,4.768-2.896l7.129-83.037
	c0.117-1.375-2.941-2.209-4.34-2.084l-12.584,1.12c-6.732-0.249-15.633,0.075-3.08-1.702c13.723-1.943,7.088-3.617,5.57-3.481
	c-1.517,0.136-42.898,5.55-50.85,7.513c-3.312,0.819-5.041,2.131-5.943,3.382c-0.318,0.359-0.556,0.782-0.672,1.24
	C198.816,24.167,199.029,25.1,199.029,25.1z"/>
<path fill="#46DA53" d="M58.141,29.512l-9.63,0.857c-1.211,0.108-2.292,1.036-2.636,2.177c-0.071,0.082-0.09,0.163-0.051,0.241
	c-0.021,0.099-0.047,0.196-0.056,0.298l-7.643,89.012c-0.118,1.376,0.918,2.39,2.316,2.265l46.53-4.143
	c0.18,1.355,1.345,1.843,1.345,1.843s0.798-0.835,2.079-2.204c0.484-0.143,0.944-0.412,1.322-0.785l15.85-17.51
	c0.514-0.51,0.835-1.166,0.892-1.826l0.125-1.452c0.828-1.272,1.421-2.363,1.67-3.17c0.588-1.913-0.172-1.771-1.32-0.903
	l4.382-51.044c0.057-0.66-0.155-1.27-0.589-1.694L99.663,26.539c-0.435-0.425-1.055-0.629-1.726-0.57l-3.594,0.32
	c-0.688-0.269-1.558-0.471-2.685-0.553c-6.499-0.477-41.024,1.145-42.299,1.258s-7.18,2.542,4.247,2.131
	C58.978,28.93,59.594,29.118,58.141,29.512z M64.996,47.029l22.376-1.992l4.944,4.834l-4.011,46.714l-5.982,5.92l-22.26,1.982
	L64.996,47.029z"/>
<path fill="#46DA53" d="M274.727,95.055l-0.365,4.256c-0.084,0.974,0.416,1.756,1.209,2.092c0.274,0.725,0.622,1.312,1.067,1.701
	c4.204,3.668,3.946-1.998,3.978-1.461c0.312,5.164,2.613-0.262,3.205-0.338c0.68-0.088,1.244-0.271,1.729-0.52l8.675-0.771
	c1.397-0.125,2.626-1.34,2.743-2.716l3.297-38.388c0.727,2.218,2.127-1.385,2.215-2.413c0.096-1.117,0.741-20.061,0.804-32.748
	l1.435-16.709c0.117-1.375-0.919-2.389-2.316-2.264l-17.547,1.562c-1.397,0.124-2.625,1.34-2.742,2.715l-6.35,73.938
	C275.271,86.284,274.709,90.971,274.727,95.055z"/>
<path fill="#46DA53" d="M5.386,124.272c-0.118,1.375,0.918,2.389,2.316,2.264l17.546-1.562c1.397-0.124,2.625-1.34,2.744-2.715
	l7.749-90.257c0.097-1.131-0.591-2.006-1.614-2.216c-0.79-4.757-5.444-2.686-6.993-1.85c-1.646-0.104-3.266-0.091-4.167,0.229
	c-1.011,0.361-1.895,1.537-2.566,2.73l-4.523,0.402c-1.397,0.125-2.625,1.34-2.744,2.716L10.78,61.447
	c-0.728-2.218-2.127,1.385-2.215,2.414c-0.096,1.115-1.267,26.173-1.594,41.954L5.386,124.272z"/>
<path fill="#46DA53" d="M33.095,21.855c4.183-3.801-3.641-4.367-0.287-4.332c3.355,0.037,2.738-2.567,2.397-2.65
	c-0.34-0.083-7.147-1.215-9.413-0.406c-2.266,0.809-3.902,5.721-3.902,5.721S28.912,25.656,33.095,21.855z"/>
<path fill="#46DA53" d="M121.706,70.227l-0.091,1.062c-2.709,1.336-6.463,3.77-3.956,7.324c-0.182,0.689-0.244,1.439-0.795,1.984
	c-0.122,0.213-0.207,0.414-0.286,0.613c-1.047,1.19-0.859,1.807-0.062,2.086c0.334,0.76,1.083,1.313,2.023,1.671
	c-2.684,1.568,0.001,2.336,0.694,2.175c0.09-0.021,0.459-0.071,1.032-0.146l-1.615,18.808c-0.953,1.438-0.879,2.487-0.279,3.259
	l-0.394,4.582c-1.309,1.553,0.052,3.439,0.589,3.466c0.802,0.044,21.263-1.987,26.382-4.032l34.223-3.047
	c1.396-0.125,2.625-1.34,2.743-2.715l1.397-16.275c0.117-1.375-0.918-2.389-2.316-2.265l-39.858,3.55l0.721-7.192l22.31-1.986
	c0.944-0.084,1.806-0.672,2.306-1.464c0.95-0.165,1.559-0.279,1.676-0.315c0.844-0.261,3.955-6.059-3.873-5.185
	c-0.303,0.034-0.553,0.06-0.779,0.081c-0.117-0.164-0.219-0.326-0.29-0.488c2.37-1.072,8.433-3.725,5.413-8.006
	c0.182-0.689,0.244-1.439,0.795-1.984c0.121-0.213,0.207-0.414,0.287-0.613c1.047-1.189,0.857-1.805,0.061-2.085
	c-0.334-0.761-1.082-1.314-2.022-1.672c2.683-1.568-0.001-2.335-0.694-2.175c-0.508,0.117-9.477,1.139-17.883,2.42
	c-1.012-0.184-2.688-0.193-4.756-0.083l0.014-0.329l-1.533,0.137l1.586-18.469l40.771-3.631c1.396-0.125,2.625-1.34,2.743-2.715
	l1.397-16.275c0.118-1.375-0.919-2.389-2.316-2.265l-58.823,5.237c-1.397,0.125-2.625,1.34-3,5.703l-2.94,34.247l-0.196,0.018
	c-0.945,0.084-1.806,0.671-2.304,1.464c-0.952,0.164-1.56,0.279-1.677,0.314C117.296,65.273,114.265,70.917,121.706,70.227z"/>
<path fill="#46DA53" d="M368.307,113.883l-73.148,6.514l-0.178-4.127c-0.326-2.653-4.164-4.731-8.569-4.645
	c-0.905,0.019-1.761,0.132-2.553,0.314c-0.874-0.148,2.207-0.512,1.244-0.493c-2.763,0.056-2.429,0.663-3.723,1.829
	c-0.863-1.103-2.288-1.83-3.795-1.776c-2.198,0.079-3.711,1.769-3.375,3.773l-0.114,6.999L7.536,146.008
	c-3.353,0.299-6.3,3.217-6.584,6.516c-0.058,0.679,0.006,1.316,0.166,1.906c-0.266,0.658-0.445,1.357-0.508,2.078
	c-0.178,2.068,0.613,3.807,1.959,4.752c-1.459,0.67-2.499,1.752-2.565,2.881c-0.098,1.645,1.884,2.744,4.426,2.451l175.246-20.1
	l97.43-8.676l0.518,1.731c0.228,1.852-0.03,3.57,3.139,4.093l-0.004,13.354c0.326,2.653,4.165,4.733,8.571,4.645
	s7.714-2.312,7.388-4.965l-0.882-20.524l29.31-2.61c2.341-0.209,4.469-2.05,5.408-4.436l36.729-3.27
	c3.352-0.299,6.301-3.217,6.584-6.517C374.147,116.018,371.66,113.584,368.307,113.883z"/>
</svg>
