<?xml version="1.0" encoding="utf-8"?>
<!-- Generator: Adobe Illustrator 16.0.0, SVG Export Plug-In . SVG Version: 6.00 Build 0)  -->
<!DOCTYPE svg PUBLIC "-//W3C//DTD SVG 1.1//EN" "http://www.w3.org/Graphics/SVG/1.1/DTD/svg11.dtd">
<svg version="1.1" id="Layer_1" xmlns="http://www.w3.org/2000/svg" xmlns:xlink="http://www.w3.org/1999/xlink" x="0px" y="0px"
	 width="292.54px" height="208.203px" viewBox="0 0 292.54 208.203" enable-background="new 0 0 292.54 208.203"
	 xml:space="preserve">
<g>
	<path fill="#66BD53" d="M52.755,15.335l-9.63,0.857c-1.211,0.108-2.292,1.036-2.636,2.177c-0.071,0.082-0.09,0.163-0.051,0.241
		c-0.021,0.099-0.047,0.196-0.056,0.298l-7.643,89.012c-0.118,1.376,0.918,2.39,2.316,2.265l46.53-4.143
		c0.18,1.355,1.345,1.843,1.345,1.843s0.798-0.835,2.079-2.204c0.484-0.143,0.944-0.412,1.322-0.785l15.85-17.51
		c0.514-0.51,0.835-1.166,0.892-1.826l0.125-1.452c0.828-1.272,1.421-2.363,1.67-3.17c0.588-1.913-0.172-1.771-1.32-0.903
		l4.382-51.044c0.057-0.66-0.155-1.27-0.589-1.694L94.276,12.362c-0.435-0.425-1.055-0.629-1.726-0.57l-3.594,0.32
		c-0.688-0.269-1.558-0.471-2.685-0.553c-6.499-0.477-41.024,1.145-42.299,1.258s-7.18,2.542,4.247,2.131
		C53.592,14.753,54.208,14.941,52.755,15.335z M59.609,32.852l22.376-1.992l4.944,4.834l-4.011,46.714l-5.982,5.92l-22.26,1.982
		L59.609,32.852z"/>
	<g>
		<path fill="#66BD53" d="M291.941,115.028l-13.062-14.935c-0.436-0.425-1.057-0.63-1.727-0.57l-49.426,4.401
			c-1.396,0.125-2.625,1.34-2.742,2.715l-7.504,87.374c-0.266,0.114-0.523,0.229-0.76,0.346c-1.184,0.583-0.703,0.943,0.631,1.174
			l-0.01,0.119c-0.119,1.375,0.918,2.389,2.314,2.265l7.066-0.63c-0.592,0.091-1.244,0.187-1.98,0.291
			c-13.723,1.942-7.088,3.616-5.57,3.48c1.221-0.108,25-3.983,38.402-6.518l11.508-1.025c0.67-0.06,1.336-0.379,1.852-0.889
			l15.848-17.509c0.516-0.51,0.838-1.166,0.893-1.826l4.857-56.569C292.588,116.061,292.375,115.452,291.941,115.028z
			 M244.125,121.58l22.713-2.022l4.637,4.533l-3.668,42.709l-9.203,9.521l-19.326,1.721L244.125,121.58z"/>
		<path fill="#66BD53" d="M108.93,124.613l-6.981,81.314c-0.118,1.375,0.919,2.389,2.315,2.265l15.523-1.382
			c1.396-0.125,2.625-1.34,2.743-2.716l1.038-12.097l1.078-12.543c0,0,0.43-5.009,0.898-10.473c0.047-0.547,0.095-1.097,0.143-1.647
			c-0.17-2.195-0.084-3.191,0.42-4.832c0.039-0.513,0.081-1.01,0.121-1.488c0.288-3.348,0.499-5.803,0.499-5.803l0.626-7.284
			l1.037-12.089l30.812-2.743l-2.006,23.356l-23.076,2.055c-3.188,0.284-4.227,1.314-4.697,3.5c-0.067,0.312-0.123,0.648-0.173,1.01
			c0.013,0.307,0.075,0.568,0.161,0.809c0.891,1.593,2.822,1.861,4.029,2.397c0.232,0.079,0.451,0.164,0.654,0.258
			c-2.072,0.62-5.074,2.005-3.92,5.755c-0.796,1.145-0.814,2.344-0.6,3.539c-0.293,0.384-0.332,0.809,0.256,1.142
			c0.157,0.606,0.322,1.205,0.434,1.788c-2.113,0.648-3.555,1.645-1.381,3.184c2.031,1.439,6.836,1.088,12.122,0.064l14.109-1.257
			l-1.774,20.656c-0.117,1.375,0.919,2.389,2.316,2.264l13.5-1.201c1.396-0.125,4.648-1.521,4.768-2.896l7.129-83.037
			c0.117-1.375-2.941-2.209-4.34-2.084l-12.584,1.12c-6.732-0.249-15.633,0.075-3.08-1.702c13.723-1.943,7.088-3.617,5.57-3.481
			c-1.517,0.136-42.898,5.55-50.85,7.513c-3.312,0.819-5.041,2.131-5.943,3.382c-0.318,0.359-0.556,0.782-0.672,1.24
			C108.717,123.68,108.93,124.613,108.93,124.613z"/>
		<path fill="#66BD53" d="M184.627,194.568l-0.365,4.256c-0.084,0.974,0.416,1.756,1.209,2.092c0.273,0.725,0.621,1.312,1.066,1.701
			c4.205,3.668,3.947-1.998,3.979-1.461c0.312,5.164,2.613-0.262,3.205-0.338c0.68-0.088,1.244-0.271,1.729-0.52l8.674-0.771
			c1.398-0.125,2.627-1.34,2.744-2.716l3.297-38.388c0.727,2.218,2.127-1.385,2.215-2.413c0.096-1.117,0.74-20.061,0.803-32.748
			l1.436-16.709c0.117-1.375-0.92-2.389-2.316-2.264l-17.547,1.562c-1.398,0.124-2.625,1.34-2.742,2.715l-6.35,73.938
			C185.17,185.796,184.609,190.484,184.627,194.568z"/>
	</g>
	<path fill="#66BD53" d="M0,110.095c-0.118,1.375,0.918,2.389,2.316,2.264l17.546-1.562c1.397-0.124,2.625-1.34,2.744-2.715
		l7.749-90.257c0.097-1.131-0.591-2.006-1.614-2.216c-0.79-4.757-5.444-2.686-6.993-1.85c-1.646-0.104-3.266-0.091-4.167,0.229
		c-1.011,0.361-1.895,1.537-2.566,2.73l-4.523,0.402c-1.397,0.125-2.625,1.34-2.744,2.716L5.394,47.27
		c-0.728-2.218-2.127,1.385-2.215,2.414c-0.096,1.115-1.267,26.173-1.594,41.954L0,110.095z"/>
	<path fill="#66BD53" d="M27.708,7.678c4.183-3.801-3.641-4.367-0.287-4.332c3.355,0.037,2.738-2.567,2.397-2.65
		c-0.34-0.083-7.147-1.215-9.413-0.406c-2.266,0.809-3.902,5.721-3.902,5.721S23.525,11.479,27.708,7.678z"/>
	<path fill="#66BD53" d="M116.319,56.05l-0.091,1.062c-2.709,1.336-6.463,3.77-3.956,7.324c-0.182,0.689-0.244,1.439-0.795,1.984
		c-0.122,0.213-0.207,0.414-0.286,0.613c-1.047,1.19-0.859,1.807-0.062,2.086c0.334,0.76,1.083,1.313,2.023,1.671
		c-2.684,1.568,0.001,2.336,0.694,2.175c0.09-0.021,0.459-0.071,1.032-0.146l-1.615,18.808c-0.953,1.438-0.879,2.487-0.279,3.259
		l-0.394,4.582c-1.309,1.553,0.052,3.439,0.589,3.466c0.802,0.044,21.263-1.987,26.382-4.032l34.222-3.047
		c1.396-0.125,2.625-1.34,2.743-2.715l1.397-16.275c0.117-1.375-0.918-2.389-2.316-2.265l-39.858,3.55l0.721-7.192l22.31-1.986
		c0.944-0.084,1.806-0.672,2.306-1.464c0.95-0.165,1.559-0.279,1.676-0.315c0.844-0.261,3.955-6.059-3.873-5.185
		c-0.303,0.034-0.553,0.06-0.779,0.081c-0.117-0.164-0.219-0.326-0.29-0.488c2.37-1.072,8.433-3.725,5.413-8.006
		c0.182-0.689,0.244-1.439,0.795-1.984c0.121-0.213,0.207-0.414,0.287-0.613c1.047-1.189,0.857-1.805,0.061-2.085
		c-0.334-0.761-1.082-1.314-2.022-1.672c2.683-1.568-0.001-2.335-0.694-2.175c-0.508,0.117-9.477,1.139-17.882,2.42
		c-1.012-0.184-2.688-0.193-4.756-0.083l0.014-0.329l-1.533,0.137l1.586-18.469l40.771-3.631c1.396-0.125,2.625-1.34,2.743-2.715
		L184,6.12c0.118-1.375-0.919-2.389-2.316-2.265l-58.822,5.237c-1.397,0.125-2.625,1.34-3,5.703l-2.94,34.247l-0.196,0.018
		c-0.945,0.084-1.806,0.671-2.304,1.464c-0.952,0.164-1.56,0.279-1.677,0.314C111.91,51.096,108.879,56.741,116.319,56.05z"/>
</g>
</svg>
